<?xml version="1.0" encoding="UTF-8" standalone="no"?>
<!-- Created with Inkscape (http://www.inkscape.org/) -->

<svg
   xmlns:dc="http://purl.org/dc/elements/1.1/"
   xmlns:cc="http://creativecommons.org/ns#"
   xmlns:rdf="http://www.w3.org/1999/02/22-rdf-syntax-ns#"
   xmlns:svg="http://www.w3.org/2000/svg"
   xmlns="http://www.w3.org/2000/svg"
   xmlns:sodipodi="http://sodipodi.sourceforge.net/DTD/sodipodi-0.dtd"
   xmlns:inkscape="http://www.inkscape.org/namespaces/inkscape"
   width="856.3399"
   height="360.51437"
   id="svg2046"
   sodipodi:version="0.32"
   inkscape:version="0.48.2 r9819"
   version="1.0"
   sodipodi:docname="Caesar3.svg">
  <defs
     id="defs2048" />
  <sodipodi:namedview
     id="base"
     pagecolor="white"
     bordercolor="#666666"
     borderopacity="1.0"
     inkscape:pageopacity="1"
     inkscape:pageshadow="2"
     inkscape:zoom="1.5079714"
     inkscape:cx="491.21174"
     inkscape:cy="177.21329"
     inkscape:document-units="px"
     inkscape:current-layer="layer1"
     inkscape:showpageshadow="false"
     inkscape:window-width="1920"
     inkscape:window-height="1018"
     inkscape:window-x="-8"
     inkscape:window-y="-8"
     showgrid="false"
     inkscape:window-maximized="1" />
  <metadata
     id="metadata2051">
    <rdf:RDF>
      <cc:Work
         rdf:about="">
        <dc:format>image/svg+xml</dc:format>
        <dc:type
           rdf:resource="http://purl.org/dc/dcmitype/StillImage" />
      </cc:Work>
    </rdf:RDF>
  </metadata>
  <g
     inkscape:label="Calque 1"
     inkscape:groupmode="layer"
     id="layer1"
     transform="translate(90.55398,-272.4594)">
    <rect
       style="color:#000000;fill:#ffffff;fill-opacity:1;fill-rule:nonzero;stroke:none;stroke-width:1;marker:none;visibility:visible;display:block"
       id="rect1928"
       width="856.3399"
       height="360.51437"
       x="-765.78595"
       y="272.45935"
       rx="1.1754904e-039"
       ry="1.1754904e-039"
       transform="scale(-1,1)" />
    <text
       xml:space="preserve"
       style="font-size:47.99999619px;font-style:normal;font-weight:bold;fill:#000000;fill-opacity:1;stroke:none;font-family:Bitstream Vera Sans"
       x="297.86099"
       y="346.0726"
       id="text2008"><tspan
         sodipodi:role="line"
         id="tspan2010"
         x="297.86099"
         y="346.0726" /></text>
    <polyline
       style="fill:none;stroke:#bfbfbf;stroke-width:0.15000001"
       points="15.75,12.3323 16,12.8323 16.25,12.3323 "
       id="polyline114"
       transform="matrix(-35.43307,0,0,35.43307,940.45128,98.031465)" />
    <polyline
       style="fill:none;stroke:#bfbfbf;stroke-width:0.15000001"
       points="13.75,12.3323 14,12.8323 14.25,12.3323 "
       id="polyline118"
       transform="matrix(-35.43307,0,0,35.43307,940.45128,98.031465)" />
    <polyline
       style="fill:none;stroke:#bfbfbf;stroke-width:0.15000001"
       points="11.75,12.3323 12,12.8323 12.25,12.3323 "
       id="polyline122"
       transform="matrix(-35.43307,0,0,35.43307,940.45128,98.031465)" />
    <path
       style="color:#000000;fill:none;stroke:#bfbfbf;stroke-width:4.99999952;stroke-linecap:butt;stroke-linejoin:miter;stroke-miterlimit:4;stroke-opacity:1;stroke-dasharray:4.99999984, 4.99999984;stroke-dashoffset:0;marker:none;visibility:visible;display:inline;overflow:visible"
       d="m 586.12058,346.06295 c 0,106.29921 -212.59841,141.73228 -212.59841,200.71417"
       id="path112"
       inkscape:connector-curvature="0" />
    <path
       style="color:#000000;fill:none;stroke:#bfbfbf;stroke-width:4.99999952;stroke-linecap:butt;stroke-linejoin:miter;stroke-miterlimit:4;stroke-opacity:1;stroke-dasharray:4.99999984, 4.99999984;stroke-dashoffset:0;marker:none;visibility:visible;display:inline;overflow:visible"
       d="m 656.98672,346.06295 c 0,106.29921 -212.59841,141.73228 -212.59841,200.71417"
       id="path116"
       inkscape:connector-curvature="0" />
    <path
       style="color:#000000;fill:none;stroke:#bfbfbf;stroke-width:4.99999952;stroke-linecap:butt;stroke-linejoin:miter;stroke-miterlimit:4;stroke-opacity:1;stroke-dasharray:4.99999984, 4.99999984;stroke-dashoffset:0;marker:none;visibility:visible;display:inline;overflow:visible"
       d="m 727.85286,346.06295 c 0,106.29921 -212.59841,141.73228 -212.59841,200.71417"
       id="path120"
       inkscape:connector-curvature="0" />
    <path
       style="color:#000000;fill:none;stroke:#bfbfbf;stroke-width:4.99999952;stroke-linecap:butt;stroke-linejoin:miter;stroke-miterlimit:4;stroke-opacity:1;stroke-dasharray:4.99999984, 4.99999984;stroke-dashoffset:0;marker:none;visibility:visible;display:inline;overflow:visible"
       d="m 302.65603,346.06295 c 0,106.29921 -212.598431,141.73228 -212.598431,200.71417"
       id="path100"
       inkscape:connector-curvature="0" />
    <path
       style="color:#000000;fill:none;stroke:#bfbfbf;stroke-width:4.99999952;stroke-linecap:butt;stroke-linejoin:miter;stroke-miterlimit:4;stroke-opacity:1;stroke-dasharray:4.99999984, 4.99999984;stroke-dashoffset:0;marker:none;visibility:visible;display:inline;overflow:visible"
       d="m 160.92374,346.06295 c 0,106.29921 -212.598411,141.73228 -212.598411,200.71417"
       id="path104"
       inkscape:connector-curvature="0" />
    <path
       style="color:#000000;fill:none;stroke:#bfbfbf;stroke-width:4.99999952;stroke-linecap:butt;stroke-linejoin:miter;stroke-miterlimit:4;stroke-opacity:1;stroke-dasharray:4.99999984, 4.99999984;stroke-dashoffset:0;marker:none;visibility:visible;display:inline;overflow:visible"
       d="m 231.78988,346.06295 c 0,106.29921 -212.598411,141.73228 -212.598411,200.71417"
       id="path108"
       inkscape:connector-curvature="0" />
    <rect
       style="color:#000000;fill:none;stroke:#bfbfbf;stroke-width:4.99999952;stroke-linecap:butt;stroke-linejoin:miter;stroke-miterlimit:4;stroke-opacity:1;stroke-dasharray:4.99999984, 4.99999984;stroke-dashoffset:0;marker:none;visibility:visible;display:inline;overflow:visible"
       x="549.74127"
       y="275.19681"
       width="70.866142"
       height="70.866142"
       rx="4.1651234e-038"
       ry="4.1651234e-038"
       id="rect6" />
    <rect
       style="fill:none;stroke:#bfbfbf;stroke-width:4.99999952;stroke-miterlimit:4;stroke-dasharray:4.99999984, 4.99999984;stroke-dashoffset:0"
       x="-88.053986"
       y="558.66138"
       width="70.866142"
       height="70.866142"
       rx="4.1651234e-038"
       ry="4.1651234e-038"
       id="rect10" />
    <rect
       style="color:#000000;fill:none;stroke:#bfbfbf;stroke-width:4.99999952;stroke-linecap:butt;stroke-linejoin:miter;stroke-miterlimit:4;stroke-opacity:1;stroke-dasharray:4.99999984, 4.99999984;stroke-dashoffset:0;marker:none;visibility:visible;display:inline;overflow:visible"
       x="-17.187845"
       y="558.66138"
       width="70.866142"
       height="70.866142"
       rx="4.1651234e-038"
       ry="4.1651234e-038"
       id="rect12" />
    <rect
       style="color:#000000;fill:none;stroke:#bfbfbf;stroke-width:4.99999952;stroke-linecap:butt;stroke-linejoin:miter;stroke-miterlimit:4;stroke-opacity:1;stroke-dasharray:4.99999984, 4.99999984;stroke-dashoffset:0;marker:none;visibility:visible;display:inline;overflow:visible"
       x="53.678295"
       y="558.66138"
       width="70.866142"
       height="70.866142"
       rx="4.1651234e-038"
       ry="4.1651234e-038"
       id="rect16" />
    <rect
       style="fill:#ffffff;fill-opacity:1;stroke:#000000;stroke-width:4.99999952;stroke-miterlimit:4;stroke-dasharray:none"
       x="124.54443"
       y="275.19681"
       width="70.866142"
       height="70.866142"
       rx="4.1651234e-038"
       ry="4.1651234e-038"
       id="rect22" />
    <rect
       style="color:#000000;fill:#ffffff;fill-opacity:1;fill-rule:nonzero;stroke:#000000;stroke-width:4.99999952;stroke-linecap:butt;stroke-linejoin:miter;stroke-miterlimit:4;stroke-opacity:1;stroke-dasharray:none;stroke-dashoffset:0;marker:none;visibility:visible;display:inline;overflow:visible"
       x="266.2767"
       y="275.19681"
       width="70.866142"
       height="70.866142"
       rx="4.1651234e-038"
       ry="4.1651234e-038"
       id="rect30" />
    <rect
       style="color:#000000;fill:#ffffff;fill-opacity:1;fill-rule:nonzero;stroke:#000000;stroke-width:4.99999952;stroke-linecap:butt;stroke-linejoin:miter;stroke-miterlimit:4;stroke-opacity:1;stroke-dasharray:none;stroke-dashoffset:0;marker:none;visibility:visible;display:inline;overflow:visible"
       x="337.14285"
       y="275.19681"
       width="70.866142"
       height="70.866142"
       rx="4.1651234e-038"
       ry="4.1651234e-038"
       id="rect34" />
    <rect
       style="color:#000000;fill:#ffffff;fill-opacity:1;fill-rule:nonzero;stroke:#000000;stroke-width:4.99999952;stroke-linecap:butt;stroke-linejoin:miter;stroke-miterlimit:4;stroke-opacity:1;stroke-dasharray:none;stroke-dashoffset:0;marker:none;visibility:visible;display:inline;overflow:visible"
       x="478.87512"
       y="275.19681"
       width="70.866142"
       height="70.866142"
       rx="4.1651234e-038"
       ry="4.1651234e-038"
       id="rect42" />
    <line
       style="color:#000000;fill:none;stroke:#bfbfbf;stroke-width:4.99999952;stroke-linecap:butt;stroke-linejoin:miter;stroke-miterlimit:4;stroke-opacity:1;stroke-dasharray:4.99999984, 4.99999984;stroke-dashoffset:0;marker:none;visibility:visible;display:inline;overflow:visible"
       x1="567.45782"
       y1="594.09442"
       x2="602.89087"
       y2="594.09442"
       id="line44" />
    <rect
       style="color:#000000;fill:#ffffff;fill-opacity:1;fill-rule:nonzero;stroke:#000000;stroke-width:4.99999952;stroke-linecap:butt;stroke-linejoin:miter;stroke-miterlimit:4;stroke-opacity:1;stroke-dasharray:none;stroke-dashoffset:0;marker:none;visibility:visible;display:inline;overflow:visible"
       x="124.54443"
       y="558.66138"
       width="70.866142"
       height="70.866142"
       rx="4.1651234e-038"
       ry="4.1651234e-038"
       id="rect52" />
    <rect
       style="color:#000000;fill:#ffffff;fill-opacity:1;fill-rule:nonzero;stroke:#000000;stroke-width:4.99999952;stroke-linecap:butt;stroke-linejoin:miter;stroke-miterlimit:4;stroke-opacity:1;stroke-dasharray:none;stroke-dashoffset:0;marker:none;visibility:visible;display:inline;overflow:visible"
       x="266.2767"
       y="558.66138"
       width="70.866142"
       height="70.866142"
       rx="4.1651234e-038"
       ry="4.1651234e-038"
       id="rect60" />
    <rect
       style="color:#000000;fill:#ffffff;fill-opacity:1;fill-rule:nonzero;stroke:#000000;stroke-width:4.99999952;stroke-linecap:butt;stroke-linejoin:miter;stroke-miterlimit:4;stroke-opacity:1;stroke-dasharray:none;stroke-dashoffset:0;marker:none;visibility:visible;display:inline;overflow:visible"
       x="337.14285"
       y="558.66138"
       width="70.866142"
       height="70.866142"
       rx="4.1651234e-038"
       ry="4.1651234e-038"
       id="rect64" />
    <rect
       style="color:#000000;fill:#ffffff;fill-opacity:1;fill-rule:nonzero;stroke:#000000;stroke-width:4.99999952;stroke-linecap:butt;stroke-linejoin:miter;stroke-miterlimit:4;stroke-opacity:1;stroke-dasharray:none;stroke-dashoffset:0;marker:none;visibility:visible;display:inline;overflow:visible"
       x="478.87512"
       y="558.66138"
       width="70.866142"
       height="70.866142"
       rx="4.1651234e-038"
       ry="4.1651234e-038"
       id="rect72" />
    <path
       style="fill:none;stroke:#000000;stroke-width:5.31496048"
       d="m 515.25445,346.06295 c 0,106.29921 -212.59842,141.73228 -212.59842,200.71417"
       id="path76"
       inkscape:connector-curvature="0" />
    <polyline
       style="fill:none;stroke:#000000;stroke-width:0.15000001"
       points="17.75,12.3323 18,12.8323 18.25,12.3323 "
       id="polyline78"
       transform="matrix(-35.43307,0,0,35.43307,940.45128,98.031465)" />
    <line
       style="color:#000000;fill:none;stroke:#bfbfbf;stroke-width:4.99999952;stroke-linecap:butt;stroke-linejoin:miter;stroke-miterlimit:4;stroke-opacity:1;stroke-dasharray:4.99999984, 4.99999984;stroke-dashoffset:0;marker:none;visibility:visible;display:inline;overflow:visible"
       x1="71.394829"
       y1="310.62988"
       x2="106.8279"
       y2="310.62988"
       id="line80" />
    <rect
       style="color:#000000;fill:none;stroke:#bfbfbf;stroke-width:4.99999952;stroke-linecap:butt;stroke-linejoin:miter;stroke-miterlimit:4;stroke-opacity:1;stroke-dasharray:4.99999984, 4.99999984;stroke-dashoffset:0;marker:none;visibility:visible;display:inline;overflow:visible"
       x="620.60742"
       y="275.19681"
       width="70.866142"
       height="70.866142"
       rx="4.1651234e-038"
       ry="4.1651234e-038"
       id="rect84" />
    <rect
       style="color:#000000;fill:none;stroke:#bfbfbf;stroke-width:4.99999952;stroke-linecap:butt;stroke-linejoin:miter;stroke-miterlimit:4;stroke-opacity:1;stroke-dasharray:4.99999984, 4.99999984;stroke-dashoffset:0;marker:none;visibility:visible;display:inline;overflow:visible"
       x="691.47357"
       y="275.19681"
       width="70.866142"
       height="70.866142"
       rx="4.1651234e-038"
       ry="4.1651234e-038"
       id="rect88" />
    <path
       style="fill:none;stroke:#000000;stroke-width:5.31496048"
       d="m 444.38831,346.06295 c 0,106.29921 -212.59843,141.73228 -212.59843,200.71417"
       id="path92"
       inkscape:connector-curvature="0" />
    <polyline
       style="fill:none;stroke:#000000;stroke-width:0.15000001"
       points="19.75,12.3323 20,12.8323 20.25,12.3323 "
       id="polyline94"
       transform="matrix(-35.43307,0,0,35.43307,940.45128,98.031465)" />
    <path
       style="fill:none;stroke:#000000;stroke-width:5.31496048"
       d="m 373.52217,346.06295 c 0,106.29921 -212.59843,141.73228 -212.59843,200.71417"
       id="path96"
       inkscape:connector-curvature="0" />
    <polyline
       style="fill:none;stroke:#000000;stroke-width:0.15000001"
       points="21.75,12.3323 22,12.8323 22.25,12.3323 "
       id="polyline98"
       transform="matrix(-35.43307,0,0,35.43307,940.45128,98.031465)" />
    <polyline
       style="fill:none;stroke:#bfbfbf;stroke-width:0.15000001"
       points="23.75,12.3323 24,12.8323 24.25,12.3323 "
       id="polyline102"
       transform="matrix(-35.43307,0,0,35.43307,940.45128,98.031465)" />
    <polyline
       style="fill:none;stroke:#bfbfbf;stroke-width:0.15000001"
       points="27.75,12.3323 28,12.8323 28.25,12.3323 "
       id="polyline106"
       transform="matrix(-35.43307,0,0,35.43307,940.45128,98.031465)" />
    <polyline
       style="fill:none;stroke:#bfbfbf;stroke-width:0.15000001"
       points="25.75,12.3323 26,12.8323 26.25,12.3323 "
       id="polyline110"
       transform="matrix(-35.43307,0,0,35.43307,940.45128,98.031465)" />
    <path
       style="font-size:1.35466659px;font-style:normal;font-variant:normal;font-weight:normal;font-stretch:normal;text-indent:0;text-align:center;text-decoration:none;line-height:normal;letter-spacing:normal;word-spacing:normal;text-transform:none;direction:ltr;block-progression:tb;writing-mode:lr-tb;text-anchor:middle;color:#000000;fill:#000000;fill-opacity:1;fill-rule:nonzero;stroke:none;stroke-width:1px;marker:none;visibility:visible;display:inline;overflow:visible;font-family:Bitstream Vera Sans"
       d="m 159.9775,297.79786 -6.42188,17.41406 12.8672,0 -6.44532,-17.41406 m -2.672,-4.66406 5.36719,0 13.33591,34.99218 -4.92187,0 -3.18756,-8.97656 -15.77346,0 -3.18756,8.97656 -4.99216,0 13.35937,-34.99218"
       id="text1992"
       inkscape:connector-curvature="0" />
    <g
       id="g3329"
       transform="translate(2.6989453,-187.08856)">
      <rect
         id="rect26"
         ry="4.1651234e-038"
         rx="4.1651234e-038"
         height="70.866142"
         width="70.866142"
         y="745.74994"
         x="192.71164"
         style="color:#000000;fill:#add8e6;fill-opacity:1;fill-rule:nonzero;stroke:#000000;stroke-width:4.99999952;stroke-linecap:butt;stroke-linejoin:miter;stroke-miterlimit:4;stroke-opacity:1;stroke-dasharray:none;stroke-dashoffset:0;marker:none;visibility:visible;display:inline;overflow:visible" />
      <path
         inkscape:connector-curvature="0"
         id="text1996"
         d="m 227.758,777.2338 c 1.42193,2e-5 2.4998,-0.31252 3.23433,-0.93749 0.73417,-0.62497 1.10161,-1.54683 1.10161,-2.76562 0,-1.20309 -0.36708,-2.11716 -1.10161,-2.7422 -0.73453,-0.64059 -1.8124,-0.96091 -3.23433,-0.96094 l -4.9922,0 0,7.40625 4.9922,0 m 0.30472,15.30468 c 1.8124,10e-6 3.17197,-0.38282 4.0781,-1.14842 0.92197,-0.7656 1.38295,-1.92185 1.38295,-3.46876 0,-1.51561 -0.45319,-2.64841 -1.35921,-3.39842 -0.90638,-0.7656 -2.27338,-1.14842 -4.10155,-1.14842 l -5.29689,0 0,9.16406 5.29689,0 m 8.39062,-12.58593 c 1.93748,0.5625 3.43736,1.60157 4.5,3.11719 1.06228,1.51565 1.59378,3.375 1.59378,5.57812 -4e-5,3.375 -1.14059,5.89063 -3.42177,7.54687 -2.28119,1.65625 -5.75001,2.48439 -10.40627,2.48439 l -14.97653,0 0,-34.99218 13.54688,0 c 4.85932,4e-5 8.37496,0.73442 10.54686,2.20312 2.18764,1.46877 3.2811,3.82035 3.2811,7.05469 -3e-5,1.70316 -0.39862,3.15627 -1.19515,4.35937 -0.79689,1.18751 -1.95308,2.07032 -3.4689,2.64845"
         style="font-size:1.35466659px;font-style:normal;font-variant:normal;font-weight:bold;font-stretch:normal;text-indent:0;text-align:center;text-decoration:none;line-height:normal;letter-spacing:normal;word-spacing:normal;text-transform:none;direction:ltr;block-progression:tb;writing-mode:lr-tb;text-anchor:middle;color:#000000;fill:#000000;fill-opacity:1;fill-rule:nonzero;stroke:none;stroke-width:1px;marker:none;visibility:visible;display:inline;overflow:visible;font-family:Bitstream Vera Sans" />
    </g>
    <path
       style="font-size:1.35466659px;font-style:normal;font-variant:normal;font-weight:normal;font-stretch:normal;text-indent:0;text-align:center;text-decoration:none;line-height:normal;letter-spacing:normal;word-spacing:normal;text-transform:none;direction:ltr;block-progression:tb;writing-mode:lr-tb;text-anchor:middle;color:#000000;fill:#000000;fill-opacity:1;fill-rule:nonzero;stroke:none;stroke-width:1px;marker:none;visibility:visible;display:inline;overflow:visible;font-family:Bitstream Vera Sans"
       d="m 362.60329,297.02442 0,27.21093 5.71875,0 c 4.82811,1e-5 8.35934,-1.09374 10.59375,-3.28124 2.25,-2.1875 3.375,-5.64061 3.375,-10.35937 -4e-5,-4.68748 -1.125,-8.11716 -3.375,-10.28907 -2.23441,-2.18746 -5.76564,-3.28121 -10.59375,-3.28124 l -5.71875,0 m -4.73439,-3.89062 9.72655,0 c 6.78125,3e-5 11.75779,1.4141 14.92969,4.24218 3.17197,2.81254 4.75778,7.21878 4.75781,13.21875 -3e-5,6.03126 -1.59378,10.46095 -4.78123,13.28907 -3.18756,2.82812 -8.15627,4.24218 -14.90627,4.24218 l -9.72655,0 0,-34.99218"
       id="text2012"
       inkscape:connector-curvature="0" />
    <g
       id="g3325"
       transform="translate(-2.6364689,-176.15985)">
      <rect
         id="rect38"
         ry="4.1651234e-038"
         rx="4.1651234e-038"
         height="70.866142"
         width="70.866142"
         y="734.82123"
         x="410.64548"
         style="color:#000000;fill:#ffffff;fill-opacity:1;fill-rule:nonzero;stroke:#000000;stroke-width:4.99999952;stroke-linecap:butt;stroke-linejoin:miter;stroke-miterlimit:4;stroke-opacity:1;stroke-dasharray:none;stroke-dashoffset:0;marker:none;visibility:visible;display:inline;overflow:visible" />
      <path
         inkscape:connector-curvature="0"
         id="text2016"
         d="m 434.80511,752.75819 22.12498,0 0,3.98437 -17.39062,0 0,10.35937 16.66406,0 0,3.98438 -16.66406,0 0,12.67969 17.81249,0 0,3.98437 -22.54685,0 0,-34.99218"
         style="font-size:1.35466659px;font-style:normal;font-variant:normal;font-weight:normal;font-stretch:normal;text-indent:0;text-align:center;text-decoration:none;line-height:normal;letter-spacing:normal;word-spacing:normal;text-transform:none;direction:ltr;block-progression:tb;writing-mode:lr-tb;text-anchor:middle;color:#000000;fill:#000000;fill-opacity:1;fill-rule:nonzero;stroke:none;stroke-width:1px;marker:none;visibility:visible;display:inline;overflow:visible;font-family:Bitstream Vera Sans" />
    </g>
    <path
       style="font-size:1.35466659px;font-style:normal;font-variant:normal;font-weight:normal;font-stretch:normal;text-indent:0;text-align:center;text-decoration:none;line-height:normal;letter-spacing:normal;word-spacing:normal;text-transform:none;direction:ltr;block-progression:tb;writing-mode:lr-tb;text-anchor:middle;color:#000000;fill:#000000;fill-opacity:1;fill-rule:nonzero;stroke:none;stroke-width:1px;marker:none;visibility:visible;display:inline;overflow:visible;font-family:Bitstream Vera Sans"
       d="m 504.2535,293.1338 20.10937,0 0,3.98437 -15.37498,0 0,10.3125 13.87499,0 0,3.98437 -13.87499,0 0,16.71094 -4.73439,0 0,-34.99218"
       id="text2020"
       inkscape:connector-curvature="0" />
    <path
       style="font-size:1.35466659px;font-style:normal;font-variant:normal;font-weight:normal;font-stretch:normal;text-indent:0;text-align:center;text-decoration:none;line-height:normal;letter-spacing:normal;word-spacing:normal;text-transform:none;direction:ltr;block-progression:tb;writing-mode:lr-tb;text-anchor:middle;color:#000000;fill:#000000;fill-opacity:1;fill-rule:nonzero;stroke:none;stroke-width:1px;marker:none;visibility:visible;display:inline;overflow:visible;font-family:Bitstream Vera Sans"
       d="m 315.81916,295.80567 0,4.99219 c -1.59378,-1.48436 -3.29704,-2.59374 -5.10938,-3.32812 -1.79681,-0.73435 -3.71097,-1.10155 -5.74221,-1.10158 -4,3e-5 -7.06248,1.22659 -9.18747,3.67969 -2.12493,2.43751 -3.18756,5.96877 -3.18756,10.59375 0,4.60938 1.06263,8.14063 3.18756,10.59375 2.12492,2.43751 5.18747,3.65625 9.18747,3.65624 2.03138,10e-6 3.9453,-0.36719 5.74221,-1.10158 1.81241,-0.73438 3.51567,-1.84372 5.10938,-3.32812 l 0,4.94531 c -1.65614,1.125 -3.41397,1.96874 -5.27347,2.53127 -1.84393,0.5625 -3.79686,0.84377 -5.85935,0.84377 -5.29689,0 -9.46878,-1.6172 -12.51563,-4.85156 -3.04689,-3.24999 -4.5703,-7.67968 -4.5703,-13.28906 0,-5.62498 1.52327,-10.05466 4.5703,-13.28907 3.04689,-3.24995 7.21874,-4.87496 12.51563,-4.87499 2.09374,3e-5 4.06247,0.28133 5.90623,0.84373 1.85918,0.54691 3.60156,1.37505 5.22659,2.48439"
       id="text2048"
       inkscape:connector-curvature="0" />
    <path
       style="font-size:1.35466659px;font-style:normal;font-variant:normal;font-weight:normal;font-stretch:normal;text-indent:0;text-align:center;text-decoration:none;line-height:normal;letter-spacing:normal;word-spacing:normal;text-transform:none;direction:ltr;block-progression:tb;writing-mode:lr-tb;text-anchor:middle;color:#000000;fill:#000000;fill-opacity:1;fill-rule:nonzero;stroke:none;stroke-width:1px;marker:none;visibility:visible;display:inline;overflow:visible;font-family:Bitstream Vera Sans"
       d="m 159.9775,581.26239 -6.42188,17.41408 12.8672,0 -6.44532,-17.41408 m -2.672,-4.66405 5.36719,0 13.33591,34.99218 -4.92187,0 -3.18756,-8.97655 -15.77346,0 -3.18756,8.97655 -4.99216,0 13.35937,-34.99218"
       id="text3041"
       inkscape:connector-curvature="0" />
    <g
       id="g3333"
       transform="translate(-5.2729233,126.94574)">
      <rect
         id="rect56"
         ry="4.1651234e-038"
         rx="4.1651234e-038"
         height="70.866142"
         width="70.866142"
         y="148.25107"
         x="200.6835"
         style="color:#000000;fill:#ffffff;fill-opacity:1;fill-rule:nonzero;stroke:#000000;stroke-width:4.99999952;stroke-linecap:butt;stroke-linejoin:miter;stroke-miterlimit:4;stroke-opacity:1;stroke-dasharray:none;stroke-dashoffset:0;marker:none;visibility:visible;display:inline;overflow:visible" />
      <path
         inkscape:connector-curvature="0"
         id="text3045"
         d="m 228.58142,184.46926 0,12.82032 7.59374,0 c 2.54692,0 4.42966,-0.52334 5.64845,-1.57039 1.23449,-1.06228 1.85138,-2.6798 1.85138,-4.85153 -4e-5,-2.18764 -0.61724,-3.79687 -1.85138,-4.82815 -1.2189,-1.04704 -3.10145,-1.57039 -5.64845,-1.57039 l -7.59374,0 m 0,-14.39061 0,10.54687 7.00781,0 c 2.31237,3e-5 4.03122,-0.42981 5.15626,-1.28906 1.14059,-0.87484 1.71106,-2.20323 1.71106,-3.98438 0,-1.76563 -0.57047,-3.08586 -1.71106,-3.96092 -1.125,-0.87484 -2.84386,-1.31244 -5.15626,-1.31244 l -7.00781,0 m -4.73439,-3.89062 12.09377,0 c 3.60936,3e-5 6.3906,0.75012 8.34375,2.25 1.95307,1.49988 2.9296,3.63284 2.9296,6.39843 -3e-5,2.14051 -0.49996,3.84378 -1.49988,5.10938 -0.99992,1.26567 -2.46862,2.05476 -4.40624,2.36728 2.32795,0.49996 4.13277,1.54701 5.41406,3.14079 1.29685,1.57819 1.94528,3.55468 1.94528,5.92969 -4e-5,3.12484 -1.06264,5.53904 -3.18756,7.24216 -2.12492,1.70327 -5.14846,2.55473 -9.0703,2.55473 l -12.56251,0 0,-34.99218"
         style="font-size:1.35466659px;font-style:normal;font-variant:normal;font-weight:normal;font-stretch:normal;text-indent:0;text-align:center;text-decoration:none;line-height:normal;letter-spacing:normal;word-spacing:normal;text-transform:none;direction:ltr;block-progression:tb;writing-mode:lr-tb;text-anchor:middle;color:#000000;fill:#000000;fill-opacity:1;fill-rule:nonzero;stroke:none;stroke-width:1px;marker:none;visibility:visible;display:inline;overflow:visible;font-family:Bitstream Vera Sans" />
    </g>
    <path
       style="font-size:1.35466659px;font-style:normal;font-variant:normal;font-weight:normal;font-stretch:normal;text-indent:0;text-align:center;text-decoration:none;line-height:normal;letter-spacing:normal;word-spacing:normal;text-transform:none;direction:ltr;block-progression:tb;writing-mode:lr-tb;text-anchor:middle;color:#000000;fill:#000000;fill-opacity:1;fill-rule:nonzero;stroke:none;stroke-width:1px;marker:none;visibility:visible;display:inline;overflow:visible;font-family:Bitstream Vera Sans"
       d="m 362.60329,580.48896 0,27.21093 5.71875,0 c 4.82811,0 8.35934,-1.09382 10.59375,-3.2811 2.25,-2.18764 3.375,-5.64062 3.375,-10.35939 -4e-5,-4.68747 -1.125,-8.11715 -3.375,-10.28905 -2.23441,-2.18764 -5.76564,-3.28111 -10.59375,-3.28111 l -5.71875,0 m -4.73439,-3.89062 9.72655,0 c 6.78125,4e-5 11.75779,1.41414 14.92969,4.24219 3.17197,2.81268 4.75778,7.21878 4.75781,13.21873 -3e-5,6.03128 -1.59378,10.46098 -4.78123,13.28907 -3.18756,2.82827 -8.15627,4.24219 -14.90627,4.24219 l -9.72655,0 0,-34.99218"
       id="text3049"
       inkscape:connector-curvature="0" />
    <g
       id="g3337"
       transform="translate(1.5258789e-5,94.359802)">
      <rect
         id="rect68"
         ry="4.1651234e-038"
         rx="4.1651234e-038"
         height="70.866142"
         width="70.866142"
         y="180.83701"
         x="408.009"
         style="color:#000000;fill:#add8e6;fill-opacity:1;fill-rule:nonzero;stroke:#000000;stroke-width:4.99999952;stroke-linecap:butt;stroke-linejoin:miter;stroke-miterlimit:4;stroke-opacity:1;stroke-dasharray:none;stroke-dashoffset:0;marker:none;visibility:visible;display:inline;overflow:visible" />
      <path
         inkscape:connector-curvature="0"
         id="text3053"
         d="m 430.6452,198.77397 24.35155,0 0,6.8203 -15.32813,0 0,6.51564 14.41407,0 0,6.8203 -14.41407,0 0,8.01564 15.84376,0 0,6.8203 -24.86718,0 0,-34.99218"
         style="font-size:1.35466659px;font-style:normal;font-variant:normal;font-weight:bold;font-stretch:normal;text-indent:0;text-align:center;text-decoration:none;line-height:normal;letter-spacing:normal;word-spacing:normal;text-transform:none;direction:ltr;block-progression:tb;writing-mode:lr-tb;text-anchor:middle;color:#000000;fill:#000000;fill-opacity:1;fill-rule:nonzero;stroke:none;stroke-width:1px;marker:none;visibility:visible;display:inline;overflow:visible;font-family:Bitstream Vera Sans" />
    </g>
    <path
       style="font-size:1.35466659px;font-style:normal;font-variant:normal;font-weight:normal;font-stretch:normal;text-indent:0;text-align:center;text-decoration:none;line-height:normal;letter-spacing:normal;word-spacing:normal;text-transform:none;direction:ltr;block-progression:tb;writing-mode:lr-tb;text-anchor:middle;color:#000000;fill:#000000;fill-opacity:1;fill-rule:nonzero;stroke:none;stroke-width:1px;marker:none;visibility:visible;display:inline;overflow:visible;font-family:Bitstream Vera Sans"
       d="m 504.2535,576.59834 20.10937,0 0,3.98438 -15.37498,0 0,10.31251 13.87499,0 0,3.98434 -13.87499,0 0,16.71095 -4.73439,0 0,-34.99218"
       id="text3057"
       inkscape:connector-curvature="0" />
    <path
       style="font-size:1.35466659px;font-style:normal;font-variant:normal;font-weight:normal;font-stretch:normal;text-indent:0;text-align:center;text-decoration:none;line-height:normal;letter-spacing:normal;word-spacing:normal;text-transform:none;direction:ltr;block-progression:tb;writing-mode:lr-tb;text-anchor:middle;color:#000000;fill:#000000;fill-opacity:1;fill-rule:nonzero;stroke:none;stroke-width:1px;marker:none;visibility:visible;display:inline;overflow:visible;font-family:Bitstream Vera Sans"
       d="m 315.81916,579.27024 0,4.99217 c -1.59378,-1.4843 -3.29704,-2.5937 -5.10938,-3.32823 -1.79681,-0.73418 -3.71097,-1.10162 -5.74221,-1.10162 -4,4e-5 -7.06248,1.2267 -9.18747,3.67969 -2.12493,2.43744 -3.18756,5.96877 -3.18756,10.59375 0,4.60938 1.06263,8.14064 3.18756,10.59374 2.12492,2.43744 5.18747,3.65627 9.18747,3.65627 2.03138,0 3.9453,-0.36709 5.74221,-1.10162 1.81241,-0.73452 3.51567,-1.84393 5.10938,-3.32822 l 0,4.94532 c -1.65614,1.125 -3.41397,1.96866 -5.27347,2.53134 -1.84393,0.56267 -3.79686,0.84366 -5.85935,0.84366 -5.29689,0 -9.46878,-1.61717 -12.51563,-4.85157 -3.04689,-3.24992 -4.5703,-7.67969 -4.5703,-13.28907 0,-5.62496 1.52327,-10.05466 4.5703,-13.28906 3.04689,-3.24992 7.21874,-4.87495 12.51563,-4.87499 2.09374,4e-5 4.06247,0.27992 5.90623,0.84366 1.85918,0.54709 3.60156,1.37516 5.22659,2.48421"
       id="text3061"
       inkscape:connector-curvature="0" />
    <path
       style="font-size:1.35466659px;font-style:normal;font-variant:normal;font-weight:normal;font-stretch:normal;text-indent:0;text-align:center;text-decoration:none;line-height:normal;letter-spacing:normal;word-spacing:normal;text-transform:none;direction:ltr;block-progression:tb;writing-mode:lr-tb;text-anchor:middle;color:#000000;fill:#bfbfbf;fill-opacity:1;fill-rule:nonzero;stroke:none;stroke-width:1px;marker:none;visibility:visible;display:inline;overflow:visible;font-family:Bitstream Vera Sans"
       d="m -66.003734,576.59836 5.085939,0 8.695311,13.00781 8.742188,-13.00781 5.085936,0 -11.25,16.80468 12.000001,18.1875 -5.085939,0 -9.84375,-14.88281 -9.914059,14.88281 -5.109375,0 12.492188,-18.67969 -10.89844,-16.31249"
       id="text3093"
       inkscape:connector-curvature="0" />
    <path
       style="font-size:1.35466659px;font-style:normal;font-variant:normal;font-weight:normal;font-stretch:normal;text-indent:0;text-align:center;text-decoration:none;line-height:normal;letter-spacing:normal;word-spacing:normal;text-transform:none;direction:ltr;block-progression:tb;writing-mode:lr-tb;text-anchor:middle;color:#000000;fill:#bfbfbf;fill-opacity:1;fill-rule:nonzero;stroke:none;stroke-width:1px;marker:none;visibility:visible;display:inline;overflow:visible;font-family:Bitstream Vera Sans"
       d="m 3.4913269,576.59836 5.0859353,0 9.7031268,14.39062 9.632809,-14.39062 5.085939,0 -12.374999,18.32812 0,16.66406 -4.757811,0 0,-16.66406 -12.3750001,-18.32812"
       id="text3097"
       inkscape:connector-curvature="0" />
    <path
       style="font-size:1.35466659px;font-style:normal;font-variant:normal;font-weight:normal;font-stretch:normal;text-indent:0;text-align:center;text-decoration:none;line-height:normal;letter-spacing:normal;word-spacing:normal;text-transform:none;direction:ltr;block-progression:tb;writing-mode:lr-tb;text-anchor:middle;color:#000000;fill:#bfbfbf;fill-opacity:1;fill-rule:nonzero;stroke:none;stroke-width:1px;marker:none;visibility:visible;display:inline;overflow:visible;font-family:Bitstream Vera Sans"
       d="m 75.365279,576.59836 27.492191,0 0,3.60937 -22.125002,27.39844 22.664062,0 0,3.98437 -28.570312,0 0,-3.60938 22.124997,-27.39843 -21.585936,0 0,-3.98437"
       id="text3101"
       inkscape:connector-curvature="0" />
    <path
       style="font-size:1.35466659px;font-style:normal;font-variant:normal;font-weight:normal;font-stretch:normal;text-indent:0;text-align:center;text-decoration:none;line-height:normal;letter-spacing:normal;word-spacing:normal;text-transform:none;direction:ltr;block-progression:tb;writing-mode:lr-tb;text-anchor:middle;color:#000000;fill:#bfbfbf;fill-opacity:1;fill-rule:nonzero;stroke:none;stroke-width:1px;marker:none;visibility:visible;display:inline;overflow:visible;font-family:Bitstream Vera Sans"
       d="m 595.76805,323.11052 0,-9.39845 -7.73436,0 0,-3.89062 12.42188,0 0,15.02345 c -1.82835,1.29685 -3.84378,2.28118 -6.04687,2.95299 -2.20323,0.65622 -4.55471,0.98433 -7.05469,0.98433 -5.46878,0 -9.75001,-1.59378 -12.84374,-4.78127 -3.07807,-3.20315 -4.61722,-7.65623 -4.61722,-13.35936 0,-5.71872 1.53922,-10.17185 4.61722,-13.35937 3.09366,-3.20315 7.37496,-4.80465 12.84374,-4.80469 2.28118,4e-5 4.44529,0.27992 6.49219,0.84366 2.06256,0.56268 3.96088,1.39075 5.6953,2.48422 l 0,5.03904 c -1.75004,-1.48429 -3.60939,-2.6015 -5.57812,-3.35162 -1.96867,-0.75011 -4.03909,-1.125 -6.21092,-1.125 -4.28128,4e-5 -7.50002,1.19552 -9.65626,3.58594 -2.14051,2.39067 -3.21095,5.95314 -3.21095,10.6875 0,4.71876 1.07044,8.27344 3.21095,10.66404 2.1561,2.39067 5.37498,3.58597 9.65626,3.58597 1.67173,0 3.16417,-0.14173 4.47654,-0.42201 1.31244,-0.29764 2.49201,-0.75012 3.53905,-1.35921"
       id="text4875"
       inkscape:connector-curvature="0" />
    <path
       style="font-size:1.35466659px;font-style:normal;font-variant:normal;font-weight:normal;font-stretch:normal;text-indent:0;text-align:center;text-decoration:none;line-height:normal;letter-spacing:normal;word-spacing:normal;text-transform:none;direction:ltr;block-progression:tb;writing-mode:lr-tb;text-anchor:middle;color:#000000;fill:#bfbfbf;fill-opacity:1;fill-rule:nonzero;stroke:none;stroke-width:1px;marker:none;visibility:visible;display:inline;overflow:visible;font-family:Bitstream Vera Sans"
       d="m 642.70454,293.13379 4.73439,0 0,14.34373 17.20311,0 0,-14.34373 4.73439,0 0,34.99218 -4.73439,0 0,-16.66407 -17.20311,0 0,16.66407 -4.73439,0 0,-34.99218"
       id="text4879"
       inkscape:connector-curvature="0" />
    <path
       style="font-size:1.35466659px;font-style:normal;font-variant:normal;font-weight:normal;font-stretch:normal;text-indent:0;text-align:center;text-decoration:none;line-height:normal;letter-spacing:normal;word-spacing:normal;text-transform:none;direction:ltr;block-progression:tb;writing-mode:lr-tb;text-anchor:middle;color:#000000;fill:#bfbfbf;fill-opacity:1;fill-rule:nonzero;stroke:none;stroke-width:1px;marker:none;visibility:visible;display:inline;overflow:visible;font-family:Bitstream Vera Sans"
       d="m 724.53945,293.13379 4.73435,0 0,34.99218 -4.73435,0 0,-34.99218"
       id="text4883"
       inkscape:connector-curvature="0" />
  </g>
</svg>
